<svg width="24" height="24" viewBox="0 0 24 24" fill="none" xmlns="http://www.w3.org/2000/svg">
<g clip-path="url(#clip0_144_1203)">
<path d="M18.7659 2.51562L12.7316 6.89983L22.8424 14.2459C23.0447 13.3902 23.1523 12.4983 23.1523 11.5817C23.1523 7.91311 21.4366 4.63804 18.7659 2.51562Z" fill="white"/>
<path d="M17.5896 1.69376C15.8359 0.623285 13.7768 0.00585938 11.5762 0.00585938C9.2111 0.00585938 7.00982 0.719331 5.17513 1.94157L7.48114 9.03812L17.5896 1.69376Z" fill="white"/>
<path d="M4.0309 2.80957C1.56437 4.93411 0 8.07854 0 11.5817C0 12.6581 0.148229 13.7005 0.424384 14.69H7.89142L4.0309 2.80957Z" fill="white"/>
<path d="M0.896111 16.0469C2.58736 20.0772 6.49586 22.9552 11.087 23.147L13.3939 16.0469H0.896111Z" fill="white"/>
<path d="M12.5224 23.1194C17.0736 22.7495 20.8885 19.7357 22.4253 15.62L16.385 11.2314L12.5224 23.1194Z" fill="white"/>
</g>
<defs>
<clipPath id="clip0_144_1203">
<rect width="23.1523" height="23.1523" fill="white"/>
</clipPath>
</defs>
</svg>
