<svg width="22" height="22" viewBox="0 0 22 22" fill="none" xmlns="http://www.w3.org/2000/svg">
<rect width="22" height="22" fill="white"/>
<path d="M4.8125 19.9375H17.1875" stroke="#ED3237" stroke-linecap="round" stroke-linejoin="round"/>
<path d="M11 11.6875C12.5188 11.6875 13.75 10.4563 13.75 8.9375C13.75 7.41872 12.5188 6.1875 11 6.1875C9.48122 6.1875 8.25 7.41872 8.25 8.9375C8.25 10.4563 9.48122 11.6875 11 11.6875Z" stroke="#ED3237" stroke-linecap="round" stroke-linejoin="round"/>
<path d="M17.875 8.9375C17.875 15.125 11 19.9375 11 19.9375C11 19.9375 4.125 15.125 4.125 8.9375C4.125 7.11414 4.84933 5.36545 6.13864 4.07614C7.42795 2.78683 9.17664 2.0625 11 2.0625C12.8234 2.0625 14.572 2.78683 15.8614 4.07614C17.1507 5.36545 17.875 7.11414 17.875 8.9375V8.9375Z" stroke="#ED3237" stroke-linecap="round" stroke-linejoin="round"/>
</svg>
